<?xml version="1.0" encoding="UTF-8" standalone="no"?>
<!DOCTYPE svg PUBLIC "-//W3C//DTD SVG 1.1//EN" "http://www.w3.org/Graphics/SVG/1.1/DTD/svg11.dtd">
<svg width="100%" height="100%" viewBox="0 0 512 512" version="1.1" xmlns="http://www.w3.org/2000/svg" xmlns:xlink="http://www.w3.org/1999/xlink" xml:space="preserve" xmlns:serif="http://www.serif.com/" style="fill-rule:evenodd;clip-rule:evenodd;stroke-linejoin:round;stroke-miterlimit:1.41421;">
    <path d="M447.07,26.918C431.207,26.918 416.414,33.594 405.414,45.719C395.309,56.859 389.512,71.781 389.512,86.66L389.512,150.563C384.035,148.836 378.211,147.902 372.172,147.902C357.805,147.902 344.648,153.191 334.492,161.922C324.32,153.191 311.117,147.898 296.691,147.898C290.656,147.898 284.832,148.828 279.352,150.543L279.352,58.141C279.352,26.082 253.27,0 221.211,0C189.152,0 163.074,26.082 163.074,58.141L163.074,284.539C163.074,294.387 156.98,308.086 146.918,310.301L106.773,274.445L106.688,274.371C81.398,252.031 42.645,254.434 20.305,279.723C-1.934,304.902 0.344,343.418 25.313,365.805L127.531,463.828L127.629,463.922C129.703,465.883 179.141,511.969 242.633,511.969C243.441,511.969 391.98,512 391.988,512C455.305,512 506.813,460.488 506.813,397.176L506.813,85.273C506.813,51.461 481.688,26.918 447.07,26.918ZM372.172,188.699C381.734,188.699 389.512,196.672 389.512,206.473L389.512,274.34C389.512,284.141 381.734,292.109 372.172,292.109C362.613,292.109 354.832,284.141 354.832,274.34L354.832,206.473C354.832,196.672 362.613,188.699 372.172,188.699ZM296.691,188.699C306.254,188.699 314.031,196.48 314.031,206.039L314.031,274.34C314.031,274.484 314.043,274.625 314.043,274.77L314.031,274.77C314.031,284.332 306.254,292.109 296.691,292.109C287.133,292.109 279.352,284.332 279.352,274.77L279.352,206.039C279.352,196.48 287.133,188.699 296.691,188.699ZM466.012,397.176C466.012,437.992 432.805,471.199 391.992,471.199C391.992,471.199 243.441,471.168 242.633,471.168C196.102,471.168 156.805,435.328 155.695,434.305L53.281,336.094L52.668,335.527C44.234,328.082 43.438,315.164 50.883,306.734C58.32,298.316 71.211,297.504 79.641,304.918L121.555,342.352C127.816,347.945 135.723,351.152 143.824,351.383C144.586,351.402 145.359,351.398 146.133,351.371C181.797,350.008 203.871,315.621 203.871,284.539L203.871,58.141C203.871,48.578 211.652,40.801 221.211,40.801C230.773,40.801 238.551,48.578 238.551,58.141L238.551,274.77C238.551,306.828 264.633,332.91 296.691,332.91C311.117,332.91 324.32,327.621 334.492,318.891C344.648,327.621 357.805,332.91 372.172,332.91C404.23,332.91 430.313,306.637 430.313,274.34L430.313,86.66C430.313,77.699 437.195,67.719 447.07,67.719C452.766,67.719 466.012,69.426 466.012,85.273L466.012,397.176Z" style="fill:rgb(242,48,5);fill-rule:nonzero;"/>
</svg>
