<?xml version="1.0" encoding="UTF-8" standalone="no"?>
<!DOCTYPE svg PUBLIC "-//W3C//DTD SVG 1.1//EN" "http://www.w3.org/Graphics/SVG/1.1/DTD/svg11.dtd">
<svg width="100%" height="100%" viewBox="0 0 512 512" version="1.1" xmlns="http://www.w3.org/2000/svg" xmlns:xlink="http://www.w3.org/1999/xlink" xml:space="preserve" xmlns:serif="http://www.serif.com/" style="fill-rule:evenodd;clip-rule:evenodd;stroke-linejoin:round;stroke-miterlimit:1.41421;">
    <path d="M416.616,218.033L416.616,180.616C416.616,172.332 409.9,165.616 401.616,165.616C393.332,165.616 386.616,172.332 386.616,180.616L386.616,218.033C386.616,290.055 328.022,348.649 256,348.649C183.978,348.649 125.384,290.055 125.384,218.033L125.384,180.616C125.384,172.332 118.668,165.616 110.384,165.616C102.1,165.616 95.384,172.332 95.384,180.616L95.384,218.033C95.384,301.539 159.444,370.353 241,377.943L241,420.3L184.001,420.3C148.326,420.3 119.301,449.324 119.301,485C119.301,499.888 131.413,512 146.301,512L365.697,512C380.585,512 392.697,499.888 392.697,485C392.697,449.324 363.673,420.3 327.997,420.3L271,420.3L271,377.942C352.556,370.353 416.616,301.538 416.616,218.033ZM362.57,482L149.43,482C150.955,464.265 165.878,450.3 184.001,450.3L327.998,450.3C346.122,450.3 361.044,464.265 362.57,482Z" style="fill:rgb(242,48,5);fill-rule:nonzero;"/>
    <path d="M256,318.649C311.48,318.649 356.616,273.513 356.616,218.033L356.616,100.616C356.616,45.136 311.48,0 256,0C200.52,0 155.384,45.136 155.384,100.616L155.384,218.032C155.384,273.513 200.52,318.649 256,318.649ZM256,30C289.79,30 318.099,53.862 324.997,85.616L290.384,85.616C282.1,85.616 275.384,92.332 275.384,100.616C275.384,108.9 282.1,115.616 290.384,115.616L326.616,115.616L326.616,145.616L290.384,145.616C282.1,145.616 275.384,152.332 275.384,160.616C275.384,168.9 282.1,175.616 290.384,175.616L326.616,175.616L326.616,205.616L290.384,205.616C282.1,205.616 275.384,212.332 275.384,220.616C275.384,228.9 282.1,235.616 290.384,235.616L324.4,235.616C316.565,266.075 288.87,288.649 256.001,288.649C223.132,288.649 195.436,266.075 187.602,235.616L220.598,235.616C228.882,235.616 235.598,228.9 235.598,220.616C235.598,212.332 228.882,205.616 220.598,205.616L185.385,205.616L185.385,175.616L220.598,175.616C228.882,175.616 235.598,168.9 235.598,160.616C235.598,152.332 228.882,145.616 220.598,145.616L185.385,145.616L185.385,115.616L220.598,115.616C228.882,115.616 235.598,108.9 235.598,100.616C235.598,92.332 228.882,85.616 220.598,85.616L187.004,85.616C193.901,53.862 222.21,30 256,30Z" style="fill:rgb(242,48,5);fill-rule:nonzero;"/>
</svg>
