<?xml version="1.0" encoding="UTF-8" standalone="no"?>
<!DOCTYPE svg PUBLIC "-//W3C//DTD SVG 1.1//EN" "http://www.w3.org/Graphics/SVG/1.1/DTD/svg11.dtd">
<svg width="100%" height="100%" viewBox="0 0 513 513" version="1.1" xmlns="http://www.w3.org/2000/svg" xmlns:xlink="http://www.w3.org/1999/xlink" xml:space="preserve" xmlns:serif="http://www.serif.com/" style="fill-rule:evenodd;clip-rule:evenodd;stroke-linejoin:round;stroke-miterlimit:1.41421;">
    <path d="M450.701,0L164.902,99.286L164.902,399.371C154.342,392.939 141.695,389.181 128.105,389.181C91.269,389.181 61.299,416.73 61.299,450.591C61.299,484.452 91.267,512.001 128.105,512.001C164.943,512.001 194.911,484.452 194.911,450.591L194.911,218.203L420.692,139.768L420.692,335.639C410.132,329.207 397.485,325.449 383.895,325.449C347.059,325.449 317.089,352.998 317.089,386.859C317.089,420.72 347.058,448.269 383.895,448.269C420.732,448.269 450.701,420.72 450.701,386.859C450.701,386.71 450.69,386.563 450.689,386.414L450.701,386.414L450.701,0Z" style="fill:rgb(242,48,5);fill-rule:nonzero;"/>
</svg>
