<?xml version="1.0"?>
<svg xmlns="http://www.w3.org/2000/svg" height="512px" viewBox="0 -24 341.33333 341" width="512px" class=""><g><path d="m317.308594 41.125h-167.609375c-3.320313-23.125-23.265625-40.957031-47.300781-40.957031h-78.371094c-13.246094 0-24.027344 10.773437-24.027344 24.023437v245.5c0 13.246094 10.78125 24.023438 24.027344 24.023438h293.28125c13.246094 0 24.023437-10.777344 24.023437-24.023438v-204.542968c0-13.246094-10.777343-24.023438-24.023437-24.023438zm10.371094 228.566406c0 5.714844-4.652344 10.367188-10.371094 10.367188h-293.28125c-5.722656 0-10.375-4.652344-10.375-10.367188v-245.5c0-5.71875 4.65625-10.371094 10.375-10.371094h78.371094c16.484374 0 30.273437 11.746094 33.445312 27.304688h-88.058594c-3.773437 0-6.824218 3.058594-6.824218 6.828125s3.050781 6.828125 6.824218 6.828125h269.523438c5.71875 0 10.371094 4.652344 10.371094 10.367188zm0 0" data-original="#000000" class="active-path" data-old_color="#000000" fill="#F23005"/><path d="m244 82.316406-102.398438 27.308594c-2.988281.796875-5.066406 3.503906-5.066406 6.59375v82.78125c-7.203125-4.789062-16.710937-7.6875-27.308594-7.6875-22.964843 0-40.960937 13.492188-40.960937 30.722656 0 17.226563 17.996094 30.71875 40.960937 30.71875 22.964844 0 40.960938-13.492187 40.960938-30.71875 0-.875-.078125-1.730468-.167969-2.582031.035157-.285156.167969-.535156.167969-.832031v-63.023438l88.746094-23.667968v39.761718c-7.199219-4.789062-16.707032-7.6875-27.308594-7.6875-22.964844 0-40.957031 13.492188-40.957031 30.722656 0 17.226563 17.992187 30.71875 40.957031 30.71875 22.96875 0 40.960938-13.492187 40.960938-30.71875 0-.875-.078126-1.730468-.167969-2.582031.035156-.285156.167969-.535156.167969-.832031v-102.402344c0-2.117187-.984376-4.117187-2.664063-5.410156-1.683594-1.289062-3.863281-1.71875-5.921875-1.183594zm-134.773438 156.785156c-14.800781 0-27.304687-7.816406-27.304687-17.066406 0-9.253906 12.503906-17.070312 27.304687-17.070312 14.800782 0 27.308594 7.816406 27.308594 17.070312 0 9.25-12.507812 17.066406-27.308594 17.066406zm40.960938-97.636718v-20.003906l88.746094-23.660157v20zm61.4375 70.328125c-14.796875 0-27.304688-7.816407-27.304688-17.066407s12.507813-17.066406 27.304688-17.066406c14.800781 0 27.308594 7.816406 27.308594 17.066406s-12.507813 17.066407-27.308594 17.066407zm0 0" data-original="#000000" class="active-path" data-old_color="#000000" fill="#F23005"/></g> </svg>
