<?xml version="1.0"?>
<svg xmlns="http://www.w3.org/2000/svg" xmlns:xlink="http://www.w3.org/1999/xlink" version="1.1" id="Layer_1" x="0px" y="0px" viewBox="0 0 504 504" style="enable-background:new 0 0 504 504;" xml:space="preserve" width="512px" height="512px"><g><g>
	<g>
		<path d="M452.452,92.532H265.448l-42.28-42.22c-0.74-0.74-1.74-1.092-2.784-1.092H51.172C22.948,49.22,0,70.212,0,98.432v39.876    c11.812-10.1,23.836-14.276,39.136-14.276h425.248c15.252,0,29.08,6.108,39.068,16.156    C501.564,113.672,479.444,92.532,452.452,92.532z" data-original="#000000" class="active-path" data-old_color="#000000" fill="#F23005"/>
	</g>
</g><g>
	<g>
		<path d="M464.388,139.78H39.136c-20.308,0-35.2,13.364-39.136,33.132v228.584c0,28.224,22.948,53.284,51.172,53.284h401.28    c28.224,0,51.548-25.06,51.548-53.284V174.632C504,154.056,485.276,139.78,464.388,139.78z M338.628,355.868h-0.004    c0,0.656-0.076,1.284-0.224,1.896c-1.544,16-15.04,28.556-31.436,28.556c-17.42,0-31.584-14.176-31.584-31.6    c0-17.42,14.144-31.596,31.572-31.596c5.82,0,11.988,1.612,15.924,4.368V215.92l-126,28v142.512c0,0.7-0.116,1.364-0.292,2.008    c-1.284,16.248-14.896,29.084-31.476,29.084c-17.416,0-31.588-14.176-31.588-31.6s14.172-31.596,31.588-31.596    c5.856,0,11.312,1.628,16.02,4.408V212.764c0-3.692,2.564-6.888,6.168-7.684l141.812-31.524c2.328-0.524,4.736,0.048,6.604,1.544    c1.86,1.496,2.916,3.756,2.916,6.144V355.868z" data-original="#000000" class="active-path" data-old_color="#000000" fill="#F23005"/>
	</g>
</g></g> </svg>
