<?xml version="1.0" encoding="UTF-8" standalone="no"?>
<!DOCTYPE svg PUBLIC "-//W3C//DTD SVG 1.1//EN" "http://www.w3.org/Graphics/SVG/1.1/DTD/svg11.dtd">
<svg width="100%" height="100%" viewBox="0 0 512 512" version="1.1" xmlns="http://www.w3.org/2000/svg" xmlns:xlink="http://www.w3.org/1999/xlink" xml:space="preserve" xmlns:serif="http://www.serif.com/" style="fill-rule:evenodd;clip-rule:evenodd;stroke-linejoin:round;stroke-miterlimit:1.41421;">
    <path d="M512,387.67L405.406,281.024L405.406,365.718L394.971,365.718C346.205,365.718 314.768,336.966 286.273,296.793C278.417,309.618 270.133,322.952 261.16,336.18C293.489,377.232 334.241,409.604 394.97,409.604L405.405,409.604L405.405,494.29L512,387.67Z" style="fill:rgb(242,48,5);fill-rule:nonzero;"/>
    <path d="M512,124.355L405.406,17.71L405.406,102.405L394.971,102.405C302.208,102.405 256.054,177.929 215.334,244.563C175.604,309.572 141.294,365.718 73.143,365.718L0,365.718L0,409.604L73.143,409.604C165.906,409.604 212.06,334.08 252.78,267.446C292.51,202.435 326.82,146.289 394.971,146.289L405.406,146.289L405.406,230.975L512,124.355Z" style="fill:rgb(242,48,5);fill-rule:nonzero;"/>
    <path d="M73.143,102.404L0,102.404L0,146.29L73.143,146.29C121.909,146.29 153.346,175.042 181.841,215.215C189.697,202.39 197.981,189.056 206.954,175.828C174.624,134.774 133.872,102.404 73.143,102.404Z" style="fill:rgb(242,48,5);fill-rule:nonzero;"/>
</svg>
