<?xml version="1.0" encoding="UTF-8" standalone="no"?>
<!DOCTYPE svg PUBLIC "-//W3C//DTD SVG 1.1//EN" "http://www.w3.org/Graphics/SVG/1.1/DTD/svg11.dtd">
<svg width="20px" height="20px" viewBox="0 0 512 512" version="1.1" xmlns="http://www.w3.org/2000/svg" xmlns:xlink="http://www.w3.org/1999/xlink" xml:space="preserve" xmlns:serif="http://www.serif.com/" style="fill-rule:evenodd;clip-rule:evenodd;stroke-linejoin:round;stroke-miterlimit:2;">
    <g id="Слой1">
        <g transform="matrix(-3.52311e-19,-0.44752,0.49999,-2.4694e-16,-55.6391,400.166)">
            <path d="M64.902,140.326C64.902,124.295 50.361,111.28 32.451,111.28C14.541,111.28 0,124.295 0,140.326L0,371.678C0,387.709 14.541,400.724 32.451,400.724C50.361,400.724 64.902,387.709 64.902,371.678L64.902,140.326Z" style="fill:white;"/>
        </g>
        <g transform="matrix(-1,-1.22465e-16,1.22465e-16,-1,703.112,771.711)">
            <path d="M430.502,467.587C426.647,467.587 422.796,466.12 419.855,463.178C413.973,457.296 413.973,447.758 419.855,441.876L475.643,386.088L419.855,330.3C413.973,324.418 413.973,314.88 419.855,308.998C425.737,303.116 435.267,303.116 441.149,308.998L507.588,375.438C513.47,381.32 513.47,390.858 507.588,396.74L441.149,463.179C438.208,466.12 434.357,467.587 430.502,467.587Z" style="fill:white;fill-rule:nonzero;"/>
        </g>
        <g transform="matrix(0.44752,-5.5323e-17,2.77556e-16,0.996611,-2.84217e-14,0.799946)">
            <path d="M64.902,125.852C64.902,117.81 50.361,111.28 32.451,111.28C14.541,111.28 0,117.81 0,125.852L0,386.152C0,394.195 14.541,400.724 32.451,400.724C50.361,400.724 64.902,394.195 64.902,386.152L64.902,125.852Z" style="fill:white;"/>
        </g>
        <g transform="matrix(0.44752,-5.5323e-17,2.77556e-16,0.996611,482.955,0.780959)">
            <path d="M64.902,125.852C64.902,117.81 50.361,111.28 32.451,111.28C14.541,111.28 0,117.81 0,125.852L0,386.152C0,394.195 14.541,400.724 32.451,400.724C50.361,400.724 64.902,394.195 64.902,386.152L64.902,125.852Z" style="fill:white;"/>
        </g>
        <g transform="matrix(7.48389e-17,0.44752,-0.953916,3.47107e-16,603.63,371.102)">
            <rect x="0" y="111.28" width="64.902" height="289.444" style="fill:white;"/>
        </g>
        <g transform="matrix(5.51577e-17,0.44752,-0.49999,3.08171e-16,567.639,111.684)">
            <path d="M64.902,140.326C64.902,124.295 50.361,111.28 32.451,111.28C14.541,111.28 0,124.295 0,140.326L0,371.678C0,387.709 14.541,400.724 32.451,400.724C50.361,400.724 64.902,387.709 64.902,371.678L64.902,140.326Z" style="fill:white;"/>
        </g>
        <g transform="matrix(1,0,-2.46519e-32,1,-191.112,-259.861)">
            <path d="M430.502,467.587C426.647,467.587 422.796,466.12 419.855,463.178C413.973,457.296 413.973,447.758 419.855,441.876L475.643,386.088L419.855,330.3C413.973,324.418 413.973,314.88 419.855,308.998C425.737,303.116 435.267,303.116 441.149,308.998L507.588,375.438C513.47,381.32 513.47,390.858 507.588,396.74L441.149,463.179C438.208,466.12 434.357,467.587 430.502,467.587Z" style="fill:white;fill-rule:nonzero;"/>
        </g>
        <g transform="matrix(-1.29644e-16,-0.44752,0.953916,-4.63928e-16,-91.6298,140.748)">
            <rect x="0" y="111.28" width="64.902" height="289.444" style="fill:white;"/>
        </g>
    </g>
</svg>
